<svg width="482" height="139" viewBox="0 0 482 139" fill="none" xmlns="http://www.w3.org/2000/svg">
<path d="M47.24 111.296C43.592 110.208 41.128 109.152 39.848 108.128C38.568 107.168 37.928 105.824 37.928 104.096C37.928 102.176 38.376 99.488 39.272 96.032C40.168 92.512 41.32 88.608 42.728 84.32C44.2 80.032 45.864 75.552 47.72 70.88C49.576 66.208 51.464 61.728 53.384 57.44C55.304 53.152 57.16 49.248 58.952 45.728C60.808 42.144 62.44 39.36 63.848 37.376L63.176 33.344C64.072 33.344 65.32 33.568 66.92 34.016C68.52 34.464 70.12 35.008 71.72 35.648C73.384 36.288 74.824 36.96 76.04 37.664C77.32 38.304 78.024 38.848 78.152 39.296C77.832 40.832 77.576 43.168 77.384 46.304C77.192 49.376 77.096 52.672 77.096 56.192C77.096 63.168 77.352 70.016 77.864 76.736C78.44 83.392 79.72 90.176 81.704 97.088C82.728 91.968 83.816 86.88 84.968 81.824C86.184 76.704 87.432 71.84 88.712 67.232C89.992 62.56 91.272 58.24 92.552 54.272C93.832 50.304 95.048 46.848 96.2 43.904C97.416 40.896 98.536 38.56 99.56 36.896C100.584 35.168 101.512 34.24 102.344 34.112C103.048 34.24 103.816 34.528 104.648 34.976C105.48 35.36 106.28 35.84 107.048 36.416C107.816 36.992 108.52 37.632 109.16 38.336C109.8 39.04 110.312 39.744 110.696 40.448C108.648 41.28 106.6 43.232 104.552 46.304C102.568 49.376 100.648 53.12 98.792 57.536C97 61.888 95.304 66.624 93.704 71.744C92.168 76.864 90.792 81.92 89.576 86.912C88.424 91.84 87.496 96.416 86.792 100.64C86.152 104.864 85.8 108.256 85.736 110.816C85.736 110.944 85.768 111.04 85.832 111.104C85.64 111.168 85.416 111.2 85.16 111.2C84.968 111.2 84.776 111.2 84.584 111.2C81.64 111.2 79.016 110.816 76.712 110.048C74.472 109.344 73 108.32 72.296 106.976C70.952 101.6 69.832 96.416 68.936 91.424C68.04 86.432 67.272 81.44 66.632 76.448C66.056 71.456 65.576 66.432 65.192 61.376C64.872 56.256 64.616 50.912 64.424 45.344C63.208 47.264 61.928 49.792 60.584 52.928C59.24 56 57.928 59.392 56.648 63.104C55.368 66.816 54.12 70.72 52.904 74.816C51.752 78.912 50.728 82.912 49.832 86.816C48.936 90.72 48.232 94.432 47.72 97.952C47.208 101.408 46.952 104.416 46.952 106.976C46.952 108.32 46.952 109.28 46.952 109.856C47.016 110.432 47.112 110.912 47.24 111.296ZM127.799 101.888C126.583 100.864 125.751 99.584 125.303 98.048C124.919 96.512 124.727 95.2 124.727 94.112C124.727 92.768 124.887 91.616 125.207 90.656C124.951 90.656 124.375 91.168 123.479 92.192C122.583 93.216 121.591 94.432 120.503 95.84C119.479 97.248 118.455 98.624 117.431 99.968C116.407 101.312 115.639 102.304 115.127 102.944C114.295 103.84 113.495 104.544 112.727 105.056C112.023 105.568 111.447 105.856 110.999 105.92C109.975 105.856 108.887 105.632 107.735 105.248C106.647 104.928 105.591 104.448 104.567 103.808C103.607 103.168 102.743 102.4 101.975 101.504C101.271 100.608 100.791 99.584 100.535 98.432C100.535 96.64 100.567 95.168 100.631 94.016C100.759 92.864 100.983 91.616 101.303 90.272C101.879 87.84 102.711 85.088 103.799 82.016C104.951 78.944 106.263 75.936 107.735 72.992C109.207 69.984 110.839 67.2 112.631 64.64C114.487 62.016 116.439 59.968 118.487 58.496C119.063 58.496 119.735 58.56 120.503 58.688C121.271 58.752 122.039 58.912 122.807 59.168C123.639 59.424 124.407 59.744 125.111 60.128C125.879 60.448 126.519 60.896 127.031 61.472C126.455 62.112 124.983 64.256 122.615 67.904C120.311 71.552 117.719 76.8 114.839 83.648C114.519 84.352 114.135 85.376 113.687 86.72C113.239 88.064 112.791 89.472 112.343 90.944C111.895 92.416 111.511 93.856 111.191 95.264C110.935 96.672 110.807 97.792 110.807 98.624C110.807 99.136 110.871 99.52 110.999 99.776C111.191 100.032 111.351 100.224 111.479 100.352C112.439 99.968 113.655 98.912 115.127 97.184C116.599 95.456 118.647 92.8 121.271 89.216C121.911 88.32 122.647 87.296 123.479 86.144C124.375 84.992 125.271 83.776 126.167 82.496C127.063 81.152 127.895 79.776 128.663 78.368C129.495 76.96 130.167 75.552 130.679 74.144C130.935 73.376 131.255 72.48 131.639 71.456C132.087 70.368 132.599 69.248 133.175 68.096C133.815 66.944 134.519 65.792 135.287 64.64C136.119 63.424 137.079 62.304 138.167 61.28C138.999 61.28 139.895 61.376 140.855 61.568C141.815 61.76 142.711 62.016 143.543 62.336C144.439 62.592 145.207 62.912 145.847 63.296C146.487 63.616 146.967 63.968 147.287 64.352C146.135 67.168 144.855 69.952 143.447 72.704C142.039 75.456 140.727 78.176 139.511 80.864C138.295 83.488 137.271 86.112 136.439 88.736C135.607 91.36 135.191 93.92 135.191 96.416C135.191 97.76 135.287 98.944 135.479 99.968C135.735 100.928 135.991 101.76 136.247 102.464C136.503 103.104 136.727 103.648 136.919 104.096C137.175 104.544 137.303 104.928 137.303 105.248C137.303 105.312 137.239 105.408 137.111 105.536C137.047 105.6 136.983 105.632 136.919 105.632C136.471 105.632 135.895 105.536 135.191 105.344C134.487 105.152 133.687 104.864 132.791 104.48C131.959 104.16 131.095 103.776 130.199 103.328C129.367 102.88 128.567 102.4 127.799 101.888ZM154.414 67.232C154.094 66.848 153.806 66.048 153.549 64.832C153.294 63.552 153.166 62.464 153.166 61.568C154.83 61.696 156.43 61.824 157.966 61.952C159.502 62.016 160.91 62.08 162.19 62.144C163.15 60.224 164.174 58.336 165.262 56.48C166.414 54.56 167.502 52.832 168.526 51.296C169.614 49.696 170.606 48.352 171.502 47.264C172.462 46.176 173.198 45.472 173.71 45.152C174.35 45.152 175.15 45.28 176.11 45.536C177.134 45.728 178.158 46.016 179.182 46.4C180.206 46.72 181.134 47.072 181.966 47.456C182.798 47.84 183.374 48.224 183.694 48.608C181.774 51.04 180.11 53.312 178.702 55.424C177.358 57.472 175.886 59.84 174.286 62.528C175.566 62.528 176.846 62.496 178.126 62.432C179.47 62.368 180.814 62.272 182.158 62.144C182.478 62.464 182.734 62.88 182.926 63.392C183.118 63.84 183.214 64.32 183.214 64.832C180.078 65.984 176.27 66.624 171.79 66.752C170.19 69.824 168.75 72.896 167.47 75.968C166.254 78.976 165.198 81.888 164.302 84.704C163.47 87.52 162.798 90.176 162.286 92.672C161.838 95.168 161.614 97.408 161.614 99.392C161.614 102.208 162.67 103.776 164.781 104.096C166.701 103.84 168.526 103.36 170.254 102.656C171.982 101.952 173.518 101.056 174.862 99.968C175.246 100.544 175.47 101.024 175.534 101.408C175.15 101.984 174.478 102.656 173.518 103.424C172.622 104.192 171.63 104.928 170.542 105.632C169.454 106.4 168.398 107.04 167.374 107.552C166.35 108.064 165.582 108.352 165.07 108.416C163.47 108.352 161.87 108 160.27 107.36C158.67 106.72 157.198 105.92 155.854 104.96C154.574 104 153.518 102.944 152.686 101.792C151.854 100.576 151.438 99.392 151.438 98.24C151.438 96.704 151.63 94.784 152.014 92.48C152.462 90.112 153.07 87.552 153.838 84.8C154.606 82.048 155.502 79.168 156.526 76.16C157.55 73.152 158.67 70.176 159.886 67.232H154.414ZM180.196 102.08C180.516 100.224 181.06 97.792 181.828 94.784C182.66 91.712 183.62 88.48 184.708 85.088C185.796 81.632 186.948 78.176 188.164 74.72C189.38 71.264 190.564 68.16 191.716 65.408C192.548 63.424 193.284 61.888 193.924 60.8C194.564 59.648 195.268 58.688 196.036 57.92C196.932 58.048 197.86 58.272 198.82 58.592C199.78 58.912 200.708 59.296 201.604 59.744C202.5 60.192 203.3 60.672 204.004 61.184C204.708 61.632 205.252 62.08 205.636 62.528C203.908 64.576 202.372 66.912 201.028 69.536C199.748 72.16 198.436 75.52 197.092 79.616C200.548 76.544 203.588 73.6 206.212 70.784C208.9 67.968 211.396 64.832 213.7 61.376C214.084 61.056 214.756 60.896 215.716 60.896C216.612 60.896 217.476 61.056 218.308 61.376C219.14 61.632 219.716 62.016 220.036 62.528C218.884 65.6 218.308 68.64 218.308 71.648C218.308 74.464 218.724 76.576 219.556 77.984C219.492 78.368 219.044 79.104 218.212 80.192C217.444 81.28 216.58 82.304 215.62 83.264C213.892 82.368 212.356 81.152 211.012 79.616C209.668 78.016 208.676 76.288 208.036 74.432C205.028 76.544 202.468 78.624 200.356 80.672C198.244 82.656 196.42 84.896 194.884 87.392C193.412 89.824 192.132 92.64 191.044 95.84C190.02 99.04 189.028 102.848 188.068 107.264C187.492 107.2 186.788 106.976 185.956 106.592C185.188 106.272 184.388 105.856 183.556 105.344C182.788 104.832 182.084 104.288 181.444 103.712C180.804 103.136 180.388 102.592 180.196 102.08ZM221.314 97.568C221.314 96.992 221.346 96.288 221.41 95.456C221.538 94.56 221.73 93.408 221.986 92C222.242 90.528 222.562 88.768 222.946 86.72C223.394 84.672 223.938 82.208 224.578 79.328C224.706 78.688 224.994 77.664 225.442 76.256C225.89 74.848 226.466 73.376 227.17 71.84C227.938 70.24 228.834 68.704 229.858 67.232C230.946 65.76 232.226 64.672 233.698 63.968C234.786 64.224 236.226 64.896 238.018 65.984C239.81 67.008 241.346 68.448 242.626 70.304C241.154 71.968 239.906 73.632 238.882 75.296C237.922 76.96 237.026 78.688 236.194 80.48C235.426 82.272 234.69 84.128 233.986 86.048C233.346 87.968 232.61 89.984 231.778 92.096C231.074 93.888 230.434 95.744 229.858 97.664C229.282 99.52 228.962 101.152 228.898 102.56C228.898 103.712 228.866 104.512 228.802 104.96C228.802 105.472 228.642 105.728 228.322 105.728C228.066 105.728 227.554 105.568 226.786 105.248C226.018 104.928 225.218 104.448 224.386 103.808C223.618 103.104 222.914 102.24 222.274 101.216C221.634 100.192 221.314 98.976 221.314 97.568ZM239.65 55.904C239.65 55.52 239.746 54.944 239.938 54.176C239.618 53.856 239.33 53.376 239.074 52.736C238.882 52.096 238.786 51.52 238.786 51.008C238.786 50.432 238.85 49.664 238.978 48.704C239.17 47.68 239.394 46.592 239.65 45.44C239.906 44.288 240.226 43.104 240.61 41.888C240.994 40.608 241.378 39.456 241.762 38.432C242.53 38.432 243.458 38.656 244.546 39.104C245.698 39.488 246.85 40.032 248.002 40.736C249.154 41.376 250.21 42.112 251.17 42.944C252.13 43.712 252.866 44.448 253.378 45.152C252.674 45.856 251.746 46.848 250.594 48.128C249.442 49.344 248.322 50.656 247.234 52.064C246.146 53.408 245.154 54.688 244.258 55.904C243.362 57.12 242.786 57.984 242.53 58.496C241.762 58.368 241.09 58.048 240.514 57.536C239.938 56.96 239.65 56.416 239.65 55.904ZM248.53 131.744C246.93 131.104 245.97 129.888 245.65 128.096C245.394 126.368 244.306 124.96 242.386 123.872C242.898 120.608 243.474 117.312 244.114 113.984C244.754 110.656 245.554 106.88 246.514 102.656C247.538 98.368 248.786 93.408 250.258 87.776C251.794 82.08 253.714 75.2 256.018 67.136C253.906 67.136 252.242 67.168 251.026 67.232C249.81 67.296 248.626 67.424 247.474 67.616C247.218 67.36 246.994 67.008 246.802 66.56C246.674 66.112 246.609 65.696 246.609 65.312C247.25 65.056 248.562 64.736 250.546 64.352C252.53 63.904 254.706 63.52 257.074 63.2C258.61 58.336 260.37 53.984 262.354 50.144C264.338 46.24 266.482 42.912 268.786 40.16C271.09 37.408 273.522 35.296 276.082 33.824C278.642 32.352 281.234 31.616 283.858 31.616C284.626 31.616 285.362 31.68 286.066 31.808C286.77 31.872 287.314 31.904 287.698 31.904C288.274 31.456 289.042 31.072 290.002 30.752C290.962 30.368 291.794 30.176 292.498 30.176C293.266 30.176 294.258 30.592 295.474 31.424C294.962 32.32 294.418 33.536 293.842 35.072C293.266 36.608 292.786 38.112 292.402 39.584C290.802 44.32 289.106 47.392 287.314 48.8C286.61 48.8 286.226 47.872 286.162 46.016C286.098 44.672 285.906 43.36 285.586 42.08C285.33 41.504 285.138 40.992 285.01 40.544C284.946 40.096 284.914 39.52 284.914 38.816C284.914 38.432 284.946 37.984 285.01 37.472C285.074 36.896 285.202 35.968 285.394 34.688C284.306 34.688 283.09 35.36 281.746 36.704C280.466 38.048 279.09 39.968 277.618 42.464C276.21 44.896 274.77 47.808 273.298 51.2C271.826 54.592 270.418 58.336 269.074 62.432L277.138 62.144C277.458 62.464 277.714 63.2 277.906 64.352C278.162 65.44 278.322 66.592 278.386 67.808L267.826 67.232C265.394 74.464 263.122 81.376 261.01 87.968C258.898 94.56 257.01 100.64 255.346 106.208C253.682 111.776 252.242 116.736 251.026 121.088C249.874 125.504 249.042 129.056 248.53 131.744ZM310.055 64.256C309.799 68.224 309.095 71.648 307.943 74.528C306.791 77.344 305.127 79.84 302.951 82.016C300.839 84.128 298.247 86.048 295.175 87.776C292.103 89.504 288.519 91.168 284.423 92.768C284.423 93.152 284.391 93.568 284.327 94.016C284.327 94.4 284.327 94.816 284.327 95.264C284.327 96.096 284.391 96.96 284.519 97.856C284.647 98.752 284.871 99.584 285.191 100.352C285.511 101.12 285.959 101.76 286.535 102.272C287.111 102.72 287.847 102.944 288.743 102.944C290.471 102.944 292.167 102.56 293.831 101.792C295.495 101.024 297.063 100.096 298.535 99.008C300.071 97.856 301.479 96.64 302.759 95.36C304.103 94.016 305.287 92.8 306.311 91.712C306.951 92.288 307.495 92.832 307.943 93.344C305.063 97.184 301.895 100.384 298.439 102.944C295.047 105.44 291.815 107.04 288.743 107.744C284.327 107.232 280.871 105.632 278.375 102.944C275.943 100.192 274.727 96.896 274.727 93.056C274.727 90.432 275.079 87.776 275.783 85.088C276.551 82.336 277.575 79.712 278.855 77.216C280.199 74.656 281.735 72.256 283.463 70.016C285.255 67.776 287.143 65.824 289.127 64.16C291.175 62.496 293.255 61.184 295.367 60.224C297.543 59.264 299.687 58.784 301.799 58.784C304.743 59.168 307.495 60.992 310.055 64.256ZM303.431 67.424C301.703 67.68 299.911 68.384 298.055 69.536C296.199 70.688 294.439 72.224 292.775 74.144C291.175 76.064 289.703 78.304 288.359 80.864C287.015 83.424 285.959 86.176 285.191 89.12C290.311 86.56 294.567 83.424 297.959 79.712C301.351 75.936 303.175 71.84 303.431 67.424ZM347.62 65.216C348.26 65.216 348.996 65.344 349.828 65.6C350.724 65.792 351.524 66.08 352.228 66.464C352.932 66.784 353.508 67.136 353.956 67.52C354.468 67.904 354.724 68.256 354.724 68.576C353.444 71.264 352.26 73.984 351.172 76.736C350.084 79.424 349.156 82.016 348.388 84.512C347.62 87.008 347.012 89.344 346.564 91.52C346.18 93.696 345.988 95.584 345.988 97.184C345.988 98.976 346.18 100.48 346.564 101.696C346.948 102.848 347.588 103.68 348.484 104.192C347.716 104.704 346.724 105.12 345.508 105.44C344.292 105.76 343.204 105.92 342.244 105.92C338.788 105.92 337.06 103.552 337.06 98.816C337.06 95.168 338.276 90.176 340.708 83.84C339.428 86.784 337.956 89.568 336.292 92.192C334.628 94.752 332.932 97.024 331.204 99.008C329.476 100.992 327.716 102.624 325.924 103.904C324.196 105.12 322.596 105.856 321.124 106.112C318.756 105.984 316.836 104.864 315.364 102.752C313.892 100.576 313.156 97.824 313.156 94.496C313.156 90.912 313.924 87.136 315.46 83.168C316.996 79.2 318.948 75.52 321.316 72.128C323.748 68.736 326.372 65.92 329.188 63.68C332.003 61.376 334.724 60.16 337.348 60.032C337.988 60.224 338.692 60.608 339.46 61.184C340.292 61.76 341.06 62.432 341.764 63.2C342.532 63.968 343.172 64.768 343.684 65.6C344.196 66.368 344.484 67.04 344.548 67.616C341.988 68 339.332 69.248 336.58 71.36C333.892 73.472 331.428 76.032 329.188 79.04C327.012 81.984 325.22 85.152 323.812 88.544C322.404 91.936 321.7 95.104 321.7 98.048C321.7 99.264 322.148 100.032 323.044 100.352C324.9 99.968 327.044 98.4 329.476 95.648C331.908 92.832 334.852 88.512 338.308 82.688C338.948 81.536 339.652 80.256 340.42 78.848C341.252 77.44 342.084 75.968 342.916 74.432C343.748 72.896 344.548 71.36 345.316 69.824C346.148 68.224 346.916 66.688 347.62 65.216ZM363.664 67.232C363.344 66.848 363.056 66.048 362.799 64.832C362.544 63.552 362.416 62.464 362.416 61.568C364.08 61.696 365.68 61.824 367.216 61.952C368.752 62.016 370.16 62.08 371.44 62.144C372.4 60.224 373.424 58.336 374.512 56.48C375.664 54.56 376.752 52.832 377.776 51.296C378.864 49.696 379.856 48.352 380.752 47.264C381.712 46.176 382.448 45.472 382.96 45.152C383.6 45.152 384.4 45.28 385.36 45.536C386.384 45.728 387.408 46.016 388.432 46.4C389.456 46.72 390.384 47.072 391.216 47.456C392.048 47.84 392.624 48.224 392.944 48.608C391.024 51.04 389.36 53.312 387.952 55.424C386.608 57.472 385.136 59.84 383.536 62.528C384.816 62.528 386.096 62.496 387.376 62.432C388.72 62.368 390.064 62.272 391.408 62.144C391.728 62.464 391.984 62.88 392.176 63.392C392.368 63.84 392.464 64.32 392.464 64.832C389.328 65.984 385.52 66.624 381.04 66.752C379.44 69.824 378 72.896 376.72 75.968C375.504 78.976 374.448 81.888 373.552 84.704C372.72 87.52 372.048 90.176 371.536 92.672C371.088 95.168 370.864 97.408 370.864 99.392C370.864 102.208 371.92 103.776 374.031 104.096C375.951 103.84 377.776 103.36 379.504 102.656C381.232 101.952 382.768 101.056 384.112 99.968C384.496 100.544 384.72 101.024 384.784 101.408C384.4 101.984 383.728 102.656 382.768 103.424C381.872 104.192 380.88 104.928 379.792 105.632C378.704 106.4 377.648 107.04 376.624 107.552C375.6 108.064 374.832 108.352 374.32 108.416C372.72 108.352 371.12 108 369.52 107.36C367.92 106.72 366.448 105.92 365.104 104.96C363.824 104 362.768 102.944 361.936 101.792C361.104 100.576 360.688 99.392 360.688 98.24C360.688 96.704 360.88 94.784 361.264 92.48C361.712 90.112 362.32 87.552 363.088 84.8C363.856 82.048 364.752 79.168 365.776 76.16C366.8 73.152 367.92 70.176 369.136 67.232H363.664Z" fill="white"/>
<path d="M455.545 88C449.92 101.125 425.545 118.312 411.795 112.687C396.17 106.125 409.295 96.75 406.795 81.125C402.733 55.5 427.42 48.3125 440.858 53.9375C454.295 59.5625 460.858 74.5625 455.545 88Z" stroke="white" stroke-width="10" stroke-miterlimit="10" stroke-linecap="round" stroke-linejoin="round"/>
<path d="M449.92 33L441.17 53.9375" stroke="white" stroke-width="10" stroke-miterlimit="10" stroke-linecap="round" stroke-linejoin="round"/>
<path d="M466.483 47.375C458.983 41.4375 445.545 45.1875 445.545 45.1875C457.108 51.125 467.108 59.875 474.295 70.5L475.858 73C475.858 73 478.983 57.375 466.483 47.375Z" stroke="white" stroke-width="10" stroke-miterlimit="10" stroke-linecap="round" stroke-linejoin="round"/>
</svg>
